<svg width="18" height="16" viewBox="0 0 18 16" fill="none" xmlns="http://www.w3.org/2000/svg">
<path d="M17 13H6C5.73478 13 5.48043 13.1054 5.29289 13.2929C5.10536 13.4804 5 13.7348 5 14C5 14.2652 5.10536 14.5196 5.29289 14.7071C5.48043 14.8946 5.73478 15 6 15H17C17.2652 15 17.5196 14.8946 17.7071 14.7071C17.8946 14.5196 18 14.2652 18 14C18 13.7348 17.8946 13.4804 17.7071 13.2929C17.5196 13.1054 17.2652 13 17 13ZM17 7H6C5.73478 7 5.48043 7.10536 5.29289 7.29289C5.10536 7.48043 5 7.73478 5 8C5 8.26522 5.10536 8.51957 5.29289 8.70711C5.48043 8.89464 5.73478 9 6 9H17C17.2652 9 17.5196 8.89464 17.7071 8.70711C17.8946 8.51957 18 8.26522 18 8C18 7.73478 17.8946 7.48043 17.7071 7.29289C17.5196 7.10536 17.2652 7 17 7ZM6 3H17C17.2652 3 17.5196 2.89464 17.7071 2.70711C17.8946 2.51957 18 2.26522 18 2C18 1.73478 17.8946 1.48043 17.7071 1.29289C17.5196 1.10536 17.2652 1 17 1H6C5.73478 1 5.48043 1.10536 5.29289 1.29289C5.10536 1.48043 5 1.73478 5 2C5 2.26522 5.10536 2.51957 5.29289 2.70711C5.48043 2.89464 5.73478 3 6 3ZM1.5 0.5C1.20333 0.5 0.913319 0.587974 0.666645 0.752796C0.419971 0.917618 0.227713 1.15189 0.114181 1.42597C0.000649929 1.70006 -0.0290551 2.00166 0.0288228 2.29264C0.0867006 2.58361 0.229562 2.85088 0.43934 3.06066C0.649119 3.27044 0.916394 3.4133 1.20737 3.47118C1.49834 3.52906 1.79994 3.49935 2.07403 3.38582C2.34811 3.27229 2.58238 3.08003 2.7472 2.83336C2.91203 2.58668 3 2.29667 3 2C3 1.60218 2.84197 1.22064 2.56066 0.93934C2.27936 0.658035 1.89783 0.5 1.5 0.5ZM1.5 6.5C1.20333 6.5 0.913319 6.58797 0.666645 6.7528C0.419971 6.91762 0.227713 7.15189 0.114181 7.42597C0.000649929 7.70006 -0.0290551 8.00166 0.0288228 8.29264C0.0867006 8.58361 0.229562 8.85088 0.43934 9.06066C0.649119 9.27044 0.916394 9.4133 1.20737 9.47118C1.49834 9.52906 1.79994 9.49935 2.07403 9.38582C2.34811 9.27229 2.58238 9.08003 2.7472 8.83335C2.91203 8.58668 3 8.29667 3 8C3 7.60218 2.84197 7.22064 2.56066 6.93934C2.27936 6.65804 1.89783 6.5 1.5 6.5ZM1.5 12.5C1.20333 12.5 0.913319 12.588 0.666645 12.7528C0.419971 12.9176 0.227713 13.1519 0.114181 13.426C0.000649929 13.7001 -0.0290551 14.0017 0.0288228 14.2926C0.0867006 14.5836 0.229562 14.8509 0.43934 15.0607C0.649119 15.2704 0.916394 15.4133 1.20737 15.4712C1.49834 15.5291 1.79994 15.4993 2.07403 15.3858C2.34811 15.2723 2.58238 15.08 2.7472 14.8334C2.91203 14.5867 3 14.2967 3 14C3 13.6022 2.84197 13.2206 2.56066 12.9393C2.27936 12.658 1.89783 12.5 1.5 12.5Z" fill="#F5F5F5"/>
</svg>
