<svg width="24" height="24" viewBox="0 0 24 24" fill="none" xmlns="http://www.w3.org/2000/svg">
<path d="M10.0045 2.00001C11.3027 2.0014 12.5751 2.36381 13.6792 3.04676C14.7834 3.7297 15.6758 4.70625 16.2568 5.86727C16.8379 7.02829 17.0846 8.32801 16.9694 9.62118C16.8541 10.9143 16.3816 12.15 15.6045 13.19L21.7145 19.29C21.8082 19.383 21.8826 19.4936 21.9333 19.6154C21.9841 19.7373 22.0103 19.868 22.0103 20C22.0103 20.132 21.9841 20.2627 21.9333 20.3846C21.8826 20.5064 21.8082 20.617 21.7145 20.71C21.6215 20.8037 21.5109 20.8781 21.389 20.9289C21.2672 20.9797 21.1365 21.0058 21.0045 21.0058C20.8724 21.0058 20.7417 20.9797 20.6199 20.9289C20.498 20.8781 20.3874 20.8037 20.2945 20.71L14.1945 14.6C13.3068 15.2658 12.2736 15.7109 11.18 15.8989C10.0865 16.0868 8.96389 16.0121 7.9049 15.6808C6.8459 15.3496 5.88082 14.7714 5.08923 13.9939C4.29764 13.2163 3.70223 12.2617 3.3521 11.2088C3.00197 10.156 2.90716 9.03491 3.07547 7.93816C3.24378 6.84142 3.67041 5.8004 4.32016 4.90095C4.96991 4.0015 5.82416 3.2694 6.81248 2.76502C7.80081 2.26064 8.89487 1.99842 10.0045 2.00001ZM10.0045 14C10.9934 14 11.9601 13.7068 12.7823 13.1574C13.6046 12.6079 14.2454 11.8271 14.6239 10.9134C15.0023 9.99979 15.1013 8.99446 14.9084 8.02456C14.7155 7.05465 14.2393 6.16374 13.54 5.46447C12.8407 4.76521 11.9498 4.28901 10.9799 4.09608C10.01 3.90315 9.00467 4.00217 8.09104 4.38061C7.17741 4.75905 6.39651 5.39991 5.84711 6.22216C5.2977 7.0444 5.00446 8.0111 5.00446 9.00001C5.00446 9.65662 5.13378 10.3068 5.38506 10.9134C5.63633 11.5201 6.00463 12.0712 6.46892 12.5355C6.93321 12.9998 7.48441 13.3681 8.09104 13.6194C8.69767 13.8707 9.34785 14 10.0045 14Z" fill="#F5F5F5"/>
</svg>
